<?xml version="1.0" encoding="iso-8859-1"?>
<!-- Generator: Adobe Illustrator 19.0.0, SVG Export Plug-In . SVG Version: 6.00 Build 0)  -->
<svg version="1.1" id="Capa_1" xmlns="http://www.w3.org/2000/svg" xmlns:xlink="http://www.w3.org/1999/xlink" x="0px" y="0px"
	 viewBox="0 0 512.001 512.001" style="enable-background:new 0 0 512.001 512.001;" xml:space="preserve">
<g>
	<g>
		<path d="M437.262,74.738c-99.661-99.662-262.884-99.639-362.523,0c-99.662,99.662-99.639,262.884,0,362.524
			c99.662,99.662,262.885,99.639,362.523,0C536.924,337.601,536.902,174.378,437.262,74.738z M481.766,247.463
			c-51.218-2.036-100.923-21.907-140.042-55.978l84.576-84.576C460.431,145.867,479.861,195.008,481.766,247.463z M405.091,85.701
			l-84.646,84.646c-34.55-39.096-54.059-87.967-55.938-140.114C316.974,32.132,366.126,51.563,405.091,85.701z M234.532,31.057
			c2.061,57.875,23.832,114.972,64.666,160.537L256,234.793L106.909,85.701C142.648,54.389,186.955,35.444,234.532,31.057z
			 M85.702,106.909l149.091,149.092l-43.267,43.267C146.872,259.75,89.71,236.743,30.768,234.55
			C35.104,188.594,53.424,143.729,85.702,106.909z M29.93,264.526c51.325,1.967,101.15,21.851,140.347,55.989l-84.576,84.576
			C50.404,364.826,31.813,314.937,29.93,264.526z M106.91,426.299l84.646-84.647c34.55,39.096,54.059,87.966,55.938,140.114
			C195.027,479.868,145.875,460.436,106.91,426.299z M277.468,480.942c-2.061-57.876-23.832-114.972-64.666-160.537L256,277.207
			l149.092,149.092C369.352,457.611,325.045,476.556,277.468,480.942z M426.299,405.091L277.207,256l43.267-43.267
			c44.583,39.455,101.633,62.455,160.471,64.71C476.562,325.029,457.617,369.345,426.299,405.091z"/>
	</g>
</g>
<g>
</g>
<g>
</g>
<g>
</g>
<g>
</g>
<g>
</g>
<g>
</g>
<g>
</g>
<g>
</g>
<g>
</g>
<g>
</g>
<g>
</g>
<g>
</g>
<g>
</g>
<g>
</g>
<g>
</g>
</svg>
