<?xml version="1.0" encoding="iso-8859-1"?>
<!-- Generator: Adobe Illustrator 19.0.0, SVG Export Plug-In . SVG Version: 6.00 Build 0)  -->
<svg version="1.1" id="Capa_1" xmlns="http://www.w3.org/2000/svg" xmlns:xlink="http://www.w3.org/1999/xlink" x="0px" y="0px"
	 viewBox="0 0 511.841 511.841" style="enable-background:new 0 0 511.841 511.841;" xml:space="preserve">
<g>
	<g>
		<path d="M503.405,44.033c-3.904-18.176-18.816-32.896-37.056-36.608c-53.152-10.688-106.72-9.504-158.016,1.408
			c-0.8,0.192-1.6,0.224-2.368,0.544c-71.584,15.712-138.432,50.912-191.968,104.48C60.461,167.393,25.229,234.273,9.517,305.825
			c-0.32,0.768-0.384,1.6-0.576,2.4C-1.971,359.521-3.155,413.089,7.533,466.177c3.68,18.272,18.4,33.152,36.64,37.024
			c27.104,5.792,54.336,8.64,81.344,8.64c101.408,0,199.456-39.904,273.024-113.44c53.536-53.536,88.576-120.256,104.032-191.616
			c1.024-2.208,1.6-4.512,1.6-6.912C514.189,149.185,514.573,96.385,503.405,44.033z M50.829,471.905
			c-5.824-1.248-10.72-6.176-11.904-12.032c-7.712-38.24-8.384-76.704-3.776-114.24l131.232,131.232
			C128.365,481.281,89.453,480.193,50.829,471.905z M375.917,375.777c-47.904,47.904-107.36,79.648-171.008,94.368l-162.88-162.88
			c15.008-63.648,46.816-123.008,94.592-170.784c47.776-47.744,107.008-79.808,170.528-94.816l163.072,163.072
			C455.501,268.417,423.821,327.841,375.917,375.777z M476.941,166.209L345.453,34.721c14.464-1.792,29.024-3.008,43.68-3.008
			c23.52,0,47.264,2.336,70.848,7.072c5.888,1.184,10.848,6.08,12.096,11.936C480.301,89.345,481.389,128.225,476.941,166.209z"/>
	</g>
</g>
<g>
	<g>
		<path d="M347.213,228.449l-20.704-20.704l20.672-20.672c6.24-6.24,6.24-16.384,0-22.624s-16.384-6.24-22.624,0l-20.672,20.672
			l-20.672-20.704c-6.24-6.24-16.384-6.24-22.624,0c-6.24,6.24-6.24,16.384,0,22.624l20.672,20.704l-25.376,25.376l-20.672-20.704
			c-6.24-6.24-16.384-6.24-22.624,0s-6.24,16.384,0,22.624l20.672,20.704l-25.376,25.376l-20.672-20.704
			c-6.24-6.24-16.384-6.24-22.624,0s-6.24,16.384,0,22.624l20.672,20.704l-20.672,20.672c-6.272,6.272-6.272,16.384-0.032,22.656
			c3.136,3.104,7.232,4.672,11.328,4.672s8.192-1.568,11.328-4.672l20.672-20.704l20.672,20.672
			c3.136,3.136,7.232,4.704,11.328,4.704s8.192-1.568,11.328-4.672c6.24-6.24,6.24-16.384,0-22.624l-20.704-20.704l25.376-25.376
			l20.672,20.672c3.136,3.136,7.232,4.704,11.328,4.704s8.192-1.568,11.328-4.672c6.24-6.24,6.24-16.384,0-22.624l-20.704-20.704
			l25.376-25.376l20.672,20.672c3.136,3.136,7.232,4.704,11.328,4.704s8.192-1.568,11.328-4.672
			C353.453,244.833,353.453,234.689,347.213,228.449z"/>
	</g>
</g>
<g>
</g>
<g>
</g>
<g>
</g>
<g>
</g>
<g>
</g>
<g>
</g>
<g>
</g>
<g>
</g>
<g>
</g>
<g>
</g>
<g>
</g>
<g>
</g>
<g>
</g>
<g>
</g>
<g>
</g>
</svg>
